# xmcd CD database file
#
# Track frame offsets:
#	150
#	23006
#	46970
#	68924
#	90123
#	112202
#	131686
#	153398
#	176022
#	198118
#	223952
#	229561
#
# Disc length: 3364 seconds
#
# Revision: 0
# Processed by: cddbd v1.4PL0 Copyright (c) Steve Scherf et al.
# Submitted via: CD2WAV32(EN) R3.19
#
DISCID=9e0d220c
DTITLE=Utada Hikaru - Deep River
DYEAR=1900
DGENRE=
TTITLE0=SAKURA drops
TTITLE1=traveling
TTITLE2=Shiawase ni narou
TTITLE3=Deep River
TTITLE4=Letters
TTITLE5=Play Ball
TTITLE6=Tokyo NIGHTS
TTITLE7=A.S.A.P.
TTITLE8=Uso mitai na I Love You
TTITLE9=FINAL DISTANCE
TTITLE10=Bridge (Interlude)
TTITLE11=Hikari
EXTD=
EXTT0=
EXTT1=
EXTT2=
EXTT3=
EXTT4=
EXTT5=
EXTT6=
EXTT7=
EXTT8=
EXTT9=
EXTT10=
EXTT11=
PLAYORDER=
